<?xml version="1.0" encoding="UTF-8" standalone="no"?>
<!DOCTYPE svg PUBLIC "-//W3C//DTD SVG 1.1//EN" "http://www.w3.org/Graphics/SVG/1.1/DTD/svg11.dtd">
<svg width="100%" height="100%" viewBox="0 0 2000 2000" version="1.1" xmlns="http://www.w3.org/2000/svg" xmlns:xlink="http://www.w3.org/1999/xlink" xml:space="preserve" xmlns:serif="http://www.serif.com/" style="fill-rule:evenodd;clip-rule:evenodd;stroke-linecap:round;stroke-miterlimit:1.5;">
    <g id="Plan-de-travail1" serif:id="Plan de travail1" transform="matrix(2.857143,0,0,2.857143,0,0)">
        <rect x="0" y="0" width="700" height="700" style="fill:none;"/>
        <g transform="matrix(1.086848,0,0,1.158264,-788.113439,800.779638)">
            <g>
                <g transform="matrix(-0.436503,0.025221,-0.005468,0.401813,2767.28425,-773.163505)">
                    <path d="M4159.349,871.243C4272.218,997.221 4371.022,1065.543 4371.022,1065.543" style="fill:none;stroke:rgb(62,142,126);stroke-width:64.61px;"/>
                </g>
                <g transform="matrix(0.478493,0.027647,0.008213,0.603512,-817.421468,-984.508862)">
                    <path d="M4134.815,888.09C4152.978,944.239 4191.839,1032.855 4248.493,1012.85" style="fill:none;stroke:rgb(62,142,126);stroke-width:49.37px;"/>
                </g>
                <g transform="matrix(-0.138606,-0.195792,-0.197113,0.103708,1752.897017,382.754287)">
                    <path d="M3860.78,199.516C3836.957,436.49 3835.923,800.306 4090.983,658.819C4559.35,399.008 4470.937,989.579 4404.051,1231.335" style="fill:none;stroke:rgb(30,61,89);stroke-width:130.21px;stroke-linejoin:round;"/>
                </g>
                <g transform="matrix(-0.199762,-0.28218,-0.28628,0.150621,2129.28555,701.574172)">
                    <path d="M4404.051,1231.335C4358.915,1341.008 4397.679,1412.124 4397.679,1412.124" style="fill:none;stroke:rgb(30,61,89);stroke-width:90.03px;stroke-linejoin:round;"/>
                </g>
                <g transform="matrix(0.219518,0,0,0.21578,233.578451,-619.725316)">
                    <path d="M3147.039,1480.067C3062.617,1363.268 3013,1220.753 3013,1067C3013,671.277 3341.67,350 3746.5,350C4151.33,350 4480,671.277 4480,1067C4480,1462.723 4138.183,1686.317 3746.5,1784C3426.435,1863.822 2813.488,2085.084 2813.488,2085.084C2813.488,2085.084 3239.736,1778.348 3147.039,1480.067" style="fill:none;stroke:rgb(221,199,124);stroke-width:128.93px;stroke-linejoin:round;"/>
                </g>
                <g transform="matrix(-0.294411,0.017011,-0.004278,0.314379,2175.236387,-662.838523)">
                    <path d="M3519.763,186.916C3799.46,582.439 3965.185,690.575 4159.349,871.243" style="fill:none;stroke:rgb(62,142,126);stroke-width:88.62px;"/>
                </g>
            </g>
            <g transform="matrix(-0.138606,-0.195792,-0.197113,0.103708,1752.897017,382.754287)">
                <path d="M3860.78,199.516C3836.957,436.49 3835.923,800.306 4090.983,658.819C4204.531,595.832 4277.84,583.208 4334.18,603.095" style="fill:none;stroke:rgb(62,142,126);stroke-width:130.21px;stroke-linejoin:round;"/>
            </g>
            <g transform="matrix(-0.29085,-0.410849,-0.457384,0.240645,2385.624509,1191.110585)">
                <path d="M3883.674,18.043C3883.674,18.043 3870.064,89.049 3860.234,186.83" style="fill:none;stroke:rgb(30,61,89);stroke-width:59.15px;stroke-linejoin:round;"/>
            </g>
            <g transform="matrix(0.239711,0.01385,0.004024,0.295679,174.739354,-645.045624)">
                <path d="M4016.603,152.91C4016.603,152.91 4038.342,596.252 4135.485,865.277C4137.319,870.357 4138.109,876.424 4139.616,882.863" style="fill:none;stroke:rgb(62,142,126);stroke-width:99.94px;"/>
            </g>
        </g>
        <g transform="matrix(0.293706,0,0,0.328125,74.729178,35.196875)">
            <path d="M1322.5,185C1361.962,185 1394,213.677 1394,249C1394,284.323 1361.962,313 1322.5,313C1283.038,313 1251,284.323 1251,249C1251,213.677 1283.038,185 1322.5,185ZM1322.5,231.933C1311.977,231.933 1303.433,239.581 1303.433,249C1303.433,258.419 1311.977,266.067 1322.5,266.067C1333.023,266.067 1341.567,258.419 1341.567,249C1341.567,239.581 1333.023,231.933 1322.5,231.933Z" style="fill:rgb(62,142,126);"/>
        </g>
        <g transform="matrix(0.249897,0,0,0.034261,68.131526,427.61488)">
            <path d="M789,1259C789,1259 1363.317,1263.234 1263.302,1260" style="fill:none;stroke:rgb(221,199,124);stroke-width:147.18px;stroke-linejoin:round;"/>
        </g>
        <g transform="matrix(0.249897,0,0,0.034261,24.983769,211.66488)">
            <path d="M996.48,1238.569C996.48,1238.569 1363.317,1263.234 1263.302,1260" style="fill:none;stroke:rgb(221,199,124);stroke-width:147.18px;stroke-linejoin:round;"/>
        </g>
    </g>
</svg>
